<svg width="2315" height="650" viewBox="0 0 2315 650" fill="none" xmlns="http://www.w3.org/2000/svg">
<path d="M641.617 213.184H522.196V142.811H847.404V213.184H727.984V516H641.617V213.184ZM1120.9 436.031H947.636L914.582 516H826.083L992.419 142.811H1077.72L1244.59 516H1153.96L1120.9 436.031ZM1093.71 370.456L1034.54 227.578L975.359 370.456H1093.71ZM1405.93 522.398C1376.43 522.398 1347.82 518.488 1320.09 510.669C1292.73 502.494 1270.69 492.009 1253.98 479.214L1283.31 414.173C1299.3 425.901 1318.32 435.32 1340.35 442.428C1362.39 449.537 1384.42 453.091 1406.46 453.091C1430.98 453.091 1449.11 449.537 1460.84 442.428C1472.57 434.965 1478.43 425.191 1478.43 413.106C1478.43 404.221 1474.88 396.935 1467.77 391.248C1461.02 385.206 1452.13 380.408 1441.11 376.854C1430.45 373.3 1415.88 369.39 1397.4 365.125C1368.96 358.372 1345.68 351.619 1327.56 344.866C1309.43 338.113 1293.79 327.273 1280.64 312.345C1267.85 297.418 1261.45 277.514 1261.45 252.635C1261.45 230.954 1267.31 211.406 1279.04 193.991C1290.77 176.22 1308.36 162.181 1331.82 151.874C1355.63 141.567 1384.6 136.413 1418.72 136.413C1442.53 136.413 1465.81 139.257 1488.56 144.943C1511.31 150.63 1531.21 158.805 1548.27 169.467L1521.61 235.042C1487.14 215.494 1452.66 205.72 1418.19 205.72C1394.02 205.72 1376.07 209.629 1364.34 217.449C1352.97 225.268 1347.28 235.575 1347.28 248.37C1347.28 261.165 1353.86 270.761 1367.01 277.159C1380.51 283.201 1400.95 289.243 1428.32 295.285C1456.75 302.038 1480.03 308.791 1498.16 315.544C1516.28 322.297 1531.74 332.96 1544.54 347.532C1557.69 362.104 1564.26 381.83 1564.26 406.709C1564.26 428.034 1558.22 447.582 1546.14 465.353C1534.41 482.768 1516.64 496.63 1492.83 506.937C1469.01 517.244 1440.05 522.398 1405.93 522.398ZM1759.23 369.39L1709.11 421.636V516H1623.28V142.811H1709.11V317.143L1874.38 142.811H1970.35L1815.74 309.146L1979.41 516H1878.65L1759.23 369.39ZM2169.98 383.784V516H2083.61V382.718L1939.13 142.811H2030.83L2130.53 308.613L2230.22 142.811H2314.99L2169.98 383.784Z" fill="white"/>
<circle cx="119" cy="186" r="36" fill="white"/>
<circle cx="341" cy="186" r="36" fill="white"/>
<rect x="11" y="68" width="437" height="437" rx="31" stroke="white" stroke-width="22"/>
<path d="M86.9037 366.492C77.8729 405.429 78.7343 473.123 154.426 432.406C230.118 391.689 334.347 331.17 377 306" stroke="white" stroke-width="20" stroke-linecap="round"/>
</svg>
